<?xml version="1.0" encoding="UTF-8" standalone="no"?>
<!-- Created with Inkscape (http://www.inkscape.org/) -->

<svg
   id="outputsvg"
   style="transform-origin: 50% 50%;"
   width="1980"
   height="1980"
   viewBox="0 0 19800 19800"
   version="1.1"
   sodipodi:docname="favicon.svg"
   inkscape:version="1.3.2 (1:1.3.2+202311252150+091e20ef0f)"
   xmlns:inkscape="http://www.inkscape.org/namespaces/inkscape"
   xmlns:sodipodi="http://sodipodi.sourceforge.net/DTD/sodipodi-0.dtd"
   xmlns="http://www.w3.org/2000/svg"
   xmlns:svg="http://www.w3.org/2000/svg">
  <defs
     id="defs2" />
  <sodipodi:namedview
     id="namedview2"
     pagecolor="#505050"
     bordercolor="#ffffff"
     borderopacity="1"
     inkscape:showpageshadow="0"
     inkscape:pageopacity="0"
     inkscape:pagecheckerboard="1"
     inkscape:deskcolor="#d1d1d1"
     inkscape:zoom="0.20707071"
     inkscape:cx="3146.2683"
     inkscape:cy="854.78049"
     inkscape:window-width="1920"
     inkscape:window-height="1016"
     inkscape:window-x="0"
     inkscape:window-y="27"
     inkscape:window-maximized="1"
     inkscape:current-layer="outputsvg" />
  <g
     id="l1F4lAEhET2N8Ey9ebkRYvK"
     fill="rgb(71,87,76)">
    <g
       style="transform: none;"
       id="g1">
      <path
         id="p2BgDiTqI"
         d="M8520 19793 c-14 -2 -99 -15 -190 -29 -1029 -159 -2097 -513 -3035 -1008 -1118 -589 -2118 -1387 -2940 -2346 -739 -862 -1348 -1888 -1740 -2930 -114 -303 -152 -416 -240 -715 -174 -591 -290 -1181 -355 -1817 -20 -198 -21 -246 -17 -1085 4 -944 3 -918 63 -1333 194 -1345 623 -2561 1307 -3705 902 -1509 2191 -2756 3732 -3610 302 -168 769 -390 1090 -520 762 -309 1645 -538 2440 -634 94 -12 235 -29 315 -38 127 -16 243 -18 940 -18 565 0 839 4 948 13 333 28 825 101 1127 167 39 9 111 24 160 35 568 120 1407 400 1904 636 51 24 95 44 98 44 10 0 462 229 584 296 983 536 1902 1268 2660 2119 1246 1400 2080 3144 2374 4962 59 366 55 236 55 1654 0 1414 3 1330 -56 1674 -212 1245 -645 2410 -1297 3490 -573 949 -1327 1819 -2202 2540 -1380 1137 -3052 1881 -4819 2144 -136 21 -171 21 -1510 20 -754 -1 -1382 -4 -1396 -6z m2120 -197 c851 -73 1517 -206 2275 -453 994 -324 1930 -811 2780 -1447 1138 -851 2061 -1916 2748 -3173 70 -127 244 -475 289 -578 120 -272 156 -357 203 -475 101 -257 197 -533 275 -795 51 -171 140 -504 140 -526 0 -13 -27 -26 -112 -55 -159 -52 -999 -340 -1203 -412 -753 -265 -1724 -644 -2160 -842 -33 -15 -116 -52 -185 -83 -69 -30 -169 -76 -223 -101 -55 -25 -101 -46 -103 -46 -2 0 -165 -79 -362 -176 -313 -155 -485 -244 -667 -344 -27 -15 -97 -53 -155 -85 -755 -412 -1652 -1024 -2305 -1574 -50 -42 -99 -83 -110 -91 -27 -21 188 244 385 475 382 447 734 813 1305 1354 523 496 545 519 545 558 0 30 -3 33 -31 33 -18 0 -45 -11 -67 -29 -20 -15 -102 -77 -182 -137 -1980 -1480 -3293 -2859 -4202 -4414 -191 -326 -368 -666 -482 -926 l-66 -151 0 -632 0 -631 -85 0 -85 0 -2 588 -3 587 -40 55 c-570 790 -1104 1418 -1786 2099 -572 572 -1104 1052 -1799 1625 -595 491 -1410 1099 -2150 1606 -183 125 -802 536 -975 647 -77 49 -234 150 -350 225 -288 186 -422 270 -844 534 -200 126 -365 234 -368 241 -16 41 179 732 307 1087 67 186 190 499 248 631 103 233 126 283 220 470 1506 3021 4502 5066 7837 5350 99 8 225 19 280 24 171 14 1055 6 1265 -13z" />
      <path
         id="p1AxzyoYIz"
         d="M12690 16672 c-32 -11 21 -148 241 -630 16 -35 29 -65 29 -67 0 -2 18 -43 40 -90 22 -47 40 -88 40 -90 0 -4 297 -676 351 -793 16 -35 29 -65 29 -68 0 -4 46 -108 116 -261 8 -17 14 -34 14 -37 0 -3 -164 -6 -365 -6 l-365 0 -2 203 -3 202 -292 3 -293 2 0 -475 0 -475 1043 2 1042 3 3 205 c3 224 4 219 -64 368 -19 41 -34 75 -34 78 0 3 -61 144 -100 229 -5 11 -18 40 -28 65 -11 25 -44 101 -75 170 -30 69 -114 262 -187 430 -133 307 -161 370 -186 425 -7 17 -45 104 -85 195 -39 91 -90 206 -111 255 -22 50 -46 105 -54 123 l-14 32 -98 1 c-53 0 -206 1 -340 2 -133 1 -247 1 -252 -1z" />
      <path
         id="p19BI50yHv"
         d="M8620 16345 c-413 -59 -732 -319 -859 -700 -54 -164 -64 -232 -64 -445 -1 -208 8 -269 60 -435 106 -336 385 -594 744 -685 104 -27 365 -42 475 -29 354 44 615 196 788 458 122 185 171 352 182 616 18 414 -88 713 -336 948 -109 103 -226 173 -369 221 -190 63 -409 81 -621 51z m266 -544 c184 -35 315 -158 381 -355 25 -74 27 -95 27 -241 1 -140 -2 -169 -22 -235 -49 -156 -144 -273 -272 -334 -60 -29 -73 -31 -176 -31 -107 0 -112 1 -186 38 -254 125 -364 482 -251 817 59 176 181 296 340 334 71 18 97 19 159 7z" />
      <path
         id="pasrfTzyA"
         d="M5537 16313 c-4 -3 -7 -92 -7 -197 l0 -191 196 -155 c108 -85 341 -269 518 -408 176 -139 353 -286 391 -325 120 -122 151 -216 100 -303 -53 -90 -169 -138 -335 -138 -180 0 -300 50 -422 175 -60 62 -83 79 -105 79 -17 0 -111 -49 -243 -124 -205 -118 -215 -125 -218 -156 -5 -43 43 -113 146 -212 236 -230 571 -335 984 -309 292 19 469 76 640 208 99 76 189 212 219 333 21 82 18 308 -5 390 -57 202 -155 314 -540 619 l-229 181 434 2 434 3 0 265 0 265 -976 3 c-536 1 -979 -1 -982 -5z" />
      <path
         id="puQkBz2gX"
         d="M10137 16313 c-4 -3 -7 -92 -7 -197 l1 -191 197 -156 c108 -86 347 -274 529 -419 348 -274 440 -360 479 -444 34 -73 31 -123 -8 -182 -70 -104 -253 -155 -434 -121 -134 26 -223 73 -316 168 -56 58 -84 79 -103 79 -14 0 -120 -54 -243 -124 -206 -118 -217 -126 -220 -156 -10 -98 258 -339 474 -426 194 -79 384 -106 644 -94 175 8 278 26 394 67 213 76 355 194 438 365 96 198 71 512 -55 698 -55 82 -199 220 -362 348 -88 69 -195 154 -238 189 l-79 63 434 2 433 3 3 268 2 267 -978 0 c-538 0 -982 -3 -985 -7z" />
      <path
         id="pO3NxKYZ0"
         d="M5328 12183 l-1008 -3 0 -33 c0 -30 7 -36 93 -86 294 -173 650 -437 977 -726 292 -258 722 -704 1061 -1100 879 -1028 1371 -1745 1816 -2645 115 -233 133 -273 240 -525 42 -100 190 -488 218 -572 3 -7 20 -13 40 -13 l36 0 -3 608 -3 607 -52 195 c-88 333 -160 570 -253 825 -417 1143 -1057 2222 -2013 3390 -63 77 -74 86 -111 83 -17 -2 -484 -4 -1038 -5z" />
    </g>
  </g>
  <path
     style="fill:#ffffff;stroke-width:3.41481"
     d="M 881.02056,1954.6774 C 769.32603,1941.3373 666.46842,1910.2678 562.74283,1858.5373 320.86761,1737.9083 141.93796,1524.8152 64.964939,1265.7177 c -7.3403,-24.708 -13.819449,-48.658 -14.398109,-53.2221 -0.943687,-7.4433 8.09734,-14.133 87.73291,-64.9163 C 396.83529,982.71215 548.4129,865.85491 696.6209,717.14712 758.98333,654.57441 801.89637,605.51159 851.58074,539.98034 l 29.43982,-38.82967 v -57.63866 c 0,-54.76168 0.33055,-57.63867 6.62264,-57.63867 6.27898,0 6.67984,3.32238 7.72471,64.02766 l 1.10206,64.02766 13.13335,26.85932 c 88.19689,180.37304 229.99648,342.61249 436.47148,499.38712 43.4345,32.9794 53.9966,39.4256 53.9966,32.9546 0,-1.3942 -35.9153,-38.6583 -79.8118,-82.80912 -75.4713,-75.90853 -130.36,-135.88827 -127.224,-139.02429 0.7786,-0.77858 16.386,10.28666 34.683,24.58942 39.6828,31.01988 126.6033,89.06032 173.8548,116.09003 122.8282,70.26256 292.5645,141.78736 497.9137,209.81476 18.312,6.0663 33.2905,12.8238 33.2858,15.0166 -0.021,9.5235 -17.9266,69.5516 -32.7692,109.8551 -72.9934,198.2066 -214.9726,372.7012 -396.4343,487.2239 -118.8223,74.9902 -259.7312,124.3495 -402.7463,141.0788 -54.1634,6.3359 -165.56593,6.1901 -219.80254,-0.2875 z m 504.54144,-394.11 c 41.3312,-93.95 45.8745,-106.2138 46.3846,-125.2047 0.311,-11.5792 -0.3569,-21.9777 -1.4843,-23.1078 -1.1274,-1.13 -48.3798,-3.0445 -105.0053,-4.2543 l -102.9556,-2.1997 v 50.0648 50.0648 h 26.6355 c 16.1634,0 28.2466,-1.6111 30.7333,-4.0978 2.2537,-2.2538 4.0977,-11.4737 4.0977,-20.4888 v -16.3911 h 34.1481 c 18.7815,0 34.1481,0.8058 34.1481,1.7908 0,0.9849 -19.2083,45.2991 -42.6851,98.4759 -23.4768,53.1767 -42.6851,97.7545 -42.6851,99.0615 0,1.3071 16.391,1.9404 36.4245,1.4073 l 36.4245,-0.9692 z m -449.00829,63.7204 c 43.53624,-21.3003 63.20236,-64.4332 56.78058,-124.5344 -4.3,-40.2435 -21.99035,-66.1349 -56.94385,-83.3425 -20.70855,-10.1947 -25.62502,-11.2173 -53.93498,-11.2173 -28.85971,0 -32.87166,0.8786 -54.58018,11.9519 -50.18908,25.6009 -71.62871,83.4945 -53.03932,143.2223 10.71174,34.4169 32.47493,57.1184 66.34215,69.2027 26.67816,9.5191 70.02969,7.1179 95.3756,-5.2827 z M 751.25784,1605.062 v -27.2165 l -42.58396,-0.9557 -42.58399,-0.9557 27.76249,-22.1963 c 37.28025,-29.8057 47.16103,-45.5455 47.16103,-75.1258 0,-19.0355 -1.54974,-25.0102 -9.90444,-38.1842 -32.28203,-50.9035 -146.02523,-47.5515 -185.24639,5.4592 l -7.36919,9.9601 8.17389,6.6188 c 4.49566,3.6403 15.52324,10.343 24.50572,14.8948 l 16.33184,8.276 13.48104,-10.8337 c 21.77958,-17.5026 59.19974,-18.3123 70.203,-1.5192 4.87167,7.4351 4.88239,9.1997 0.11225,18.4242 -2.9015,5.6109 -30.66147,30.4722 -61.68882,55.2474 l -56.41336,45.0459 v 20.1385 20.1386 h 99.02945 99.02944 z m 459.75126,5.8738 c -0.9768,-11.7384 -1.864,-24.0317 -1.9715,-27.3184 -0.175,-5.349 -4.5837,-5.988 -42.0268,-6.0904 l -41.8314,-0.1145 13.6592,-10.9247 c 34.9856,-27.9816 55.5374,-50.6011 59.7963,-65.8122 12.4473,-44.4576 -9.9374,-80.0522 -58.0889,-92.3689 -29.3783,-7.5147 -68.9312,-4.7423 -93.624,6.5624 -19.2637,8.8192 -46.3832,32.3765 -46.3832,40.2906 0,4.14 39.8397,30.2819 46.1489,30.2819 1.1324,0 8.155,-4.8989 15.6058,-10.8865 10.9915,-8.833 17.3907,-11.1647 33.9236,-12.3606 24.8484,-1.7973 37.4993,4.6437 37.4993,19.0922 0,12.5512 -9.06,21.6743 -67.9257,68.3997 -27.4368,21.7785 -51.0142,41.2035 -52.394,43.1668 -1.3799,1.9633 -2.5324,9.2065 -2.5611,16.0959 -0.1037,24.8286 -6.7246,23.3293 103.0214,23.3293 h 98.9282 z M 675.21378,1176.4015 c 97.94626,-126.5874 156.64569,-237.81694 194.00909,-367.62743 11.43357,-39.72337 11.79769,-42.82426 11.79769,-100.47443 0,-46.61694 -0.96305,-59.48605 -4.45158,-59.48605 -2.51863,0 -10.87364,16.681 -19.2417,38.41659 -8.13455,21.12913 -26.06834,60.42756 -39.85286,87.32983 -79.35246,154.86685 -242.52932,344.89359 -362.45121,422.09079 -13.61654,8.7654 -24.75736,17.4212 -24.75736,19.2351 0,2.0696 39.71115,2.9619 106.62084,2.3956 l 106.62083,-0.9023 z"
     id="path2"
     transform="scale(10)" />
  <path
     style="fill:#ffffff;stroke-width:3.41481"
     d="m 872.62587,1578.5654 c -22.48797,-5.7123 -35.99782,-27.8582 -35.99782,-59.0092 0,-34.8343 18.42144,-58.0182 46.09991,-58.0182 27.34069,0 46.09991,23.8341 46.09991,58.5713 0,25.7892 -10.81377,46.3231 -28.66427,54.4296 -14.52551,6.5966 -16.36241,6.8652 -27.53773,4.0265 z"
     id="path3"
     transform="scale(10)" />
</svg>
